<svg width="389" height="120" viewBox="0 0 389 120" fill="none" xmlns="http://www.w3.org/2000/svg">
<path d="M30.2 29.5999L0.466675 59.5999L30.8667 89.7333L61.2667 119.733L91.4 89.5999L121.667 59.3333L93 30.5333C77.2667 14.7999 63.4 1.33328 62.2 0.666617C60.4667 -0.266716 53.9333 5.59995 30.2 29.5999ZM75.6667 45.3333L89.6667 59.3333L75.4 73.5999L61 87.8666L46.7333 73.7333L32.4667 59.4666L46.3333 45.3333C53.9333 37.5999 60.6 31.3333 61 31.3333C61.4 31.3333 67.9333 37.5999 75.6667 45.3333Z" fill="#F82727"/>
<path d="M208.067 28.4C201.4 29.4666 200.467 37.2 206.6 40.5333C209.267 42.1333 211.133 42.2666 213.933 41.2C217.133 40.1333 217.667 39.2 217.667 34.6666C217.667 30.2666 217.133 29.4666 214.333 28.6666C212.467 28.2666 209.667 28.1333 208.067 28.4Z" fill="white"/>
<path d="M122.333 62V91.3333H130.333H138.333L138.067 62.2666L137.667 33.3333L130.067 32.9333L122.333 32.5333V62Z" fill="white"/>
<path d="M160.867 36.5333C152.6 41.7333 148.6 50.1333 148.467 62.6667C148.333 75.2 152.2 83.3333 160.6 88.2667C165.667 91.2 168.067 91.7333 176.333 91.6C189.533 91.4667 191.667 90.2667 191.667 82.4C191.667 76.8 191.4 76.4 188.733 77.2C187 77.7333 182.867 78.4 179.4 78.9333C173.667 79.6 172.733 79.3333 169.133 75.6C165.4 71.8667 165 70.8 165 63.0667C165 53.2 167 48.6667 172.2 46.1333C175.533 44.6667 177.133 44.6667 183.133 46.2667L190.2 48.2667L192.333 42.2667C193.4 38.9333 194.2 36.1333 193.933 36C189.267 33.6 184.467 32.6667 176.467 32.6667C168.2 32.6667 166.067 33.2 160.867 36.5333Z" fill="white"/>
<path d="M230.333 62V91.3333H238.333H246.333V79.3333V67.3333H255H263.667V79.3333V91.3333H271.667H279.667V62V32.5333L272.067 32.9333L264.333 33.3333L263.933 43.6L263.533 54L257.667 54.1333C254.333 54.2666 250.6 54.4 249.4 54.5333C247.4 54.6666 246.867 53.0666 246.333 44L245.667 33.3333L238.067 32.9333L230.333 32.5333V62Z" fill="white"/>
<path d="M300.333 34.5333C294.6 37.0667 291.533 41.0667 290.733 47.0667C289.533 55.7333 293 60.9333 303.533 66.5333C314.867 72.4 316.6 74.2667 313.667 77.2C311 79.8667 305.933 79.8667 297.533 77.3333C293.933 76.2667 290.867 75.3333 290.733 75.3333C290.467 75.3333 290.333 78.4 290.333 82C290.333 88.1333 290.733 88.8 294.067 90.1333C299.667 92.4 315.933 92 320.6 89.4667C327.267 86.1333 330.333 81.2 330.333 73.8667C330.333 65.6 326.6 61.0667 315 55.6C308.6 52.5333 306.333 50.6667 306.333 48.6667C306.333 44.9333 312.067 43.8667 319.8 46.2667L326.067 48.4L328.333 42.4C329.533 39.2 330.467 36.2667 330.2 36.1333C325.933 32.6667 307 31.6 300.333 34.5333Z" fill="white"/>
<path d="M339.667 61.8666V91.3333H347.667H355.667V80.6666C355.667 72.2666 356.067 70 357.533 70C358.6 70 362.333 74.8 365.933 80.6666L372.333 91.3333H380.6C385.267 91.3333 389 91.0666 389 90.6666C389 90.2666 385.533 84.6666 381.133 78.2666L373.267 66.5333L377.8 61.6C381.667 57.4666 382.333 55.7333 382.333 50.2666C382.333 37.6 376.2 33.7333 354.733 32.9333L339.667 32.2666V61.8666ZM363.8 46C366.733 47.6 367.267 53.8666 364.733 56.4C363.8 57.3333 361.4 58 359.4 58C355.8 58 355.667 57.7333 355.667 51.3333C355.667 45.4666 356.067 44.6666 358.467 44.6666C359.933 44.6666 362.333 45.3333 363.8 46Z" fill="white"/>
<path d="M202.333 68.6666V91.3333H210.333H218.333V68.6666V46H210.333H202.333V68.6666Z" fill="white"/>
</svg>
